<svg width="48" height="48" viewBox="0 0 48 48" fill="none" xmlns="http://www.w3.org/2000/svg">
<path d="M22.75 1.67616C14.9475 3.32017 7.01413 10.1562 6 21.3322L10.1011 20.9308C10.1016 20.9202 10.1 20.9095 10.1011 20.8988C10.5813 14.7268 18.1032 9.72281 26.9016 9.72281C31.2131 9.72281 34.3224 10.9295 36.3235 12.8815C37.9584 10.8202 41.6876 6.1695 42.5548 5.5495C39.6297 1.9855 31.5313 -0.173168 22.75 1.67616Z" fill="#8E24AA"/>
<path d="M40.9011 20.6095C39.8678 21.4882 38.1871 23.1109 35.5705 24.1175C32.9538 25.1229 26.9303 24.9708 22.7246 24.6895C22.6558 25.8548 22.6058 26.9949 22.5981 27.5935C22.5678 29.8055 22.0595 31.9509 22.2563 34.1549C22.3626 35.3455 22.9038 36.4482 23.6527 37.4775C24.7647 39.0042 27.7377 40.6562 29.1063 41.7935C30.9511 43.3255 32.3511 44.0615 34.3418 45.8495C34.7866 46.2482 35.2339 46.6229 35.685 46.9842C36.3219 42.1255 36.4382 35.8815 35.9538 32.8042C35.0329 32.6429 33.1782 32.4095 32.2303 32.0989C31.4063 31.8295 30.5267 29.2655 30.1678 28.5402C29.8829 27.9655 29.9647 27.6682 30.7027 27.6322C32.7939 27.5309 35.2377 27.9615 37.2251 28.2135C38.459 30.7949 38.1501 39.9029 38.0845 41.5869H38.7058C39.5371 38.5135 40.4861 34.8895 40.6891 32.4735C40.9011 29.9482 40.3142 24.1669 40.9011 20.6095Z" fill="#D5D9E0"/>
<path d="M37.8048 21.2029L37.7715 20.8415C37.2933 18.6682 37.5105 12.1922 30.5991 11.0175C23.6876 9.84421 10.8688 12.3375 13.3781 26.8389C14.4849 33.2322 15.35 38.0122 9.22095 43.0535C12.3319 42.5495 20.0636 41.6042 21.5625 40.0295C21.3084 39.3349 21.1349 38.6495 21.0923 37.9775C20.9543 35.8149 21.4068 33.8935 21.4521 31.9255C21.4641 31.4069 21.8371 27.6922 21.8371 27.6922L22.7281 27.5629C22.7281 27.5629 24.2667 25.6229 25.0272 25.5589C25.9235 25.4842 33 25.4615 33 25.4615L32.2964 24.4722C33.1333 24.2535 33.8699 24.0055 34.4199 23.7162C35.8579 22.9615 36.9521 22.0402 37.8048 21.2029Z" fill="#D5D9E0"/>
</svg>
