<svg width="48" height="48" viewBox="0 0 48 48" fill="none" xmlns="http://www.w3.org/2000/svg">
<path d="M37.952 30.736L36.6253 30.608L38.1173 28.9627C38.1173 28.9627 38.188 26.324 37.98 17.4093C37.7533 7.52933 29.56 2.984 24.9013 2.72933V2.71733H23.176V2.73467C18.5053 3.028 10.3893 7.576 10.1627 17.4093C9.956 26.324 10.0253 28.9627 10.0253 28.9627L11.5187 30.608L10.192 30.736L10 34.2413L17.532 44L18.7827 26.0227L12.656 24.6L13.5533 19.868L21.9773 21.9387L19.7253 27.5133L24.084 32.756L28.416 27.5133L26.168 21.9387L34.5907 19.868L35.488 24.6L29.3613 26.0227L30.6133 44L38.144 34.2413L37.952 30.736Z" fill="#D5D9E0"/>
</svg>
