<svg width="32" height="32" viewBox="0 0 32 32" fill="none" xmlns="http://www.w3.org/2000/svg">
<path opacity="0.3" d="M16 6.08274L10.3577 12.8536C9.88624 13.4193 9.04549 13.4957 8.47979 13.0243C7.91409 12.5529 7.83765 11.7121 8.30907 11.1464L14.9757 3.14643C15.5088 2.50675 16.4913 2.50675 17.0243 3.14643L23.691 11.1464C24.1624 11.7121 24.086 12.5529 23.5203 13.0243C22.9546 13.4957 22.1138 13.4193 21.6424 12.8536L16 6.08274Z" fill="#FB8C00"/>
<path fill-rule="evenodd" clip-rule="evenodd" d="M3.94727 12C3.2967 12 2.81934 12.6114 2.97713 13.2425L6.0984 25.7276C6.43227 27.0631 7.63222 28 9.00882 28H22.9908C24.3674 28 25.5674 27.0631 25.9013 25.7276L29.0225 13.2425C29.1803 12.6114 28.703 12 28.0524 12H3.94727ZM15.6666 16C15.1143 16 14.6666 16.4477 14.6666 17V23C14.6666 23.5523 15.1143 24 15.6666 24H16.3333C16.8855 24 17.3333 23.5523 17.3333 23V17C17.3333 16.4477 16.8855 16 16.3332 16H15.6666ZM8.25713 17.4927C8.11418 16.9593 8.43077 16.4109 8.96423 16.268L9.60818 16.0955C10.1416 15.9525 10.69 16.2691 10.8329 16.8026L12.3858 22.5981C12.5288 23.1316 12.2122 23.6799 11.6787 23.8229L11.0348 23.9954C10.5013 24.1383 9.95298 23.8218 9.81004 23.2883L8.25713 17.4927ZM22.3916 16.0955C21.8582 15.9525 21.3098 16.2691 21.1669 16.8026L19.614 22.5981C19.471 23.1316 19.7876 23.6799 20.3211 23.8229L20.965 23.9954C21.4985 24.1383 22.0468 23.8218 22.1898 23.2883L23.7427 17.4927C23.8856 16.9593 23.5691 16.4109 23.0356 16.268L22.3916 16.0955Z" fill="#FB8C00"/>
</svg>
