<svg width="24" height="24" viewBox="0 0 24 24" fill="none" xmlns="http://www.w3.org/2000/svg">
<g clip-path="url(#clip0)">
<path fill-rule="evenodd" clip-rule="evenodd" d="M24 24.0001V0.00012207H-0.111694V24.0001H24Z" fill="#224B8C"/>
<path d="M12.3892 19.6441L12.0002 18.5104L11.6111 19.6441H10.4256L11.3704 20.3739L11.0272 21.5104L12.0002 20.8325L12.9731 21.5104L12.6299 20.3739L13.5743 19.6441H12.3892Z" fill="#F2CA30"/>
<path d="M12.3892 3.6235L12.0002 2.48981L11.6111 3.6235H10.4256L11.3704 4.3533L11.0272 5.48981L12.0002 4.81185L12.9731 5.48981L12.6299 4.3533L13.5743 3.6235H12.3892Z" fill="#F2CA30"/>
<path d="M20.3995 11.6338L20.0105 10.5001L19.6214 11.6338H18.4359L19.3807 12.3636L19.0375 13.5001L20.0105 12.8221L20.9834 13.5001L20.6402 12.3636L21.5846 11.6338H20.3995Z" fill="#F2CA30"/>
<path d="M4.37885 11.6338L3.98983 10.5001L3.60082 11.6338H2.41528L3.36009 12.3636L3.01689 13.5001L3.98983 12.8221L4.96277 13.5001L4.61957 12.3636L5.56398 11.6338H4.37885Z" fill="#F2CA30"/>
<path d="M16.3943 18.5709L16.0053 17.4372L15.6163 18.5709H14.4308L15.3756 19.3007L15.0324 20.4372L16.0053 19.7592L16.9783 20.4372L16.635 19.3007L17.5795 18.5709H16.3943Z" fill="#F2CA30"/>
<path d="M8.38401 4.69662L7.995 3.56293L7.60598 4.69662H6.42045L7.36526 5.42642L7.02206 6.56293L7.995 5.88497L8.96794 6.56293L8.62474 5.42642L9.56914 4.69662H8.38401Z" fill="#F2CA30"/>
<path d="M19.3263 7.6285L18.9373 6.49481L18.5482 7.6285H17.3627L18.3075 8.35831L17.9643 9.49481L18.9373 8.81685L19.9102 9.49481L19.567 8.35831L20.5114 7.6285H19.3263Z" fill="#F2CA30"/>
<path d="M5.45198 15.6389L5.06297 14.5052L4.67395 15.6389H3.48842L4.43323 16.3687L4.09003 17.5052L5.06297 16.8272L6.03591 17.5052L5.69271 16.3687L6.63711 15.6389H5.45198Z" fill="#F2CA30"/>
<path d="M19.3263 15.6389L18.9373 14.5052L18.5483 15.6389H17.3627L18.3076 16.3687L17.9644 17.5052L18.9373 16.8272L19.9102 17.5052L19.567 16.3687L20.5114 15.6389H19.3263Z" fill="#F2CA30"/>
<path d="M5.45204 7.62863L5.06303 6.49493L4.67401 7.62863H3.48848L4.43329 8.35843L4.09009 9.49493L5.06303 8.81697L6.03597 9.49493L5.69277 8.35843L6.63717 7.62863H5.45204Z" fill="#F2CA30"/>
<path d="M16.3943 4.6965L16.0052 3.56281L15.6162 4.6965H14.4307L15.3755 5.4263L15.0323 6.56281L16.0052 5.88485L16.9782 6.56281L16.635 5.4263L17.5794 4.6965H16.3943Z" fill="#F2CA30"/>
<path d="M8.38397 18.5709L7.99495 17.4372L7.60594 18.5709H6.4204L7.36521 19.3007L7.02201 20.4372L7.99495 19.7592L8.96789 20.4372L8.62469 19.3007L9.5691 18.5709H8.38397Z" fill="#F2CA30"/>
</g>
<defs>
<clipPath id="clip0">
<path d="M0 12.0001C0 5.37271 5.37258 0.00012207 12 0.00012207C18.6274 0.00012207 24 5.37271 24 12.0001C24 18.6275 18.6274 24.0001 12 24.0001C5.37258 24.0001 0 18.6275 0 12.0001Z" fill="white"/>
</clipPath>
</defs>
</svg>
