<svg width="102" height="16" viewBox="0 0 102 16" fill="none" xmlns="http://www.w3.org/2000/svg">
<g clip-path="url(#clip0)">
<path d="M11.3997 12.0363C11.525 12.0363 11.6502 12.0676 11.7755 12.0989C11.9008 12.1615 11.9947 12.2242 12.0887 12.3181C12.1826 12.4121 12.2452 12.506 12.3079 12.6313C12.3705 12.7565 12.3705 12.8818 12.3705 13.007C12.3705 13.2576 12.2765 13.5081 12.0573 13.696C10.7108 14.792 9.17635 15.3244 7.45402 15.3244C5.44985 15.3244 3.72752 14.6041 2.28702 13.1949C0.87784 11.7858 0.157593 10.0634 0.157593 8.02795C0.157593 6.02378 0.87784 4.30145 2.28702 2.86095C3.72752 1.42046 5.44985 0.731522 7.45402 0.731522C9.17635 0.731522 10.7421 1.2952 12.12 2.42254C12.2765 2.57912 12.3705 2.79831 12.3705 3.08015C12.3705 3.20541 12.3392 3.36199 12.3079 3.45594C12.2765 3.54988 12.1826 3.67514 12.0887 3.76909C11.9947 3.86303 11.9008 3.92567 11.7755 3.9883C11.6502 4.05093 11.5876 4.08224 11.4624 4.08224C11.2118 4.08224 10.9926 3.9883 10.8047 3.8004C10.335 3.42462 9.83397 3.14278 9.27029 2.95489C8.70662 2.767 8.11163 2.67306 7.48533 2.67306C6.01352 2.67306 4.7296 3.20542 3.66489 4.23881C2.63149 5.27221 2.09913 6.55614 2.09913 8.02795C2.09913 9.53107 2.63149 10.7837 3.66489 11.8171C4.69829 12.8505 5.9822 13.3828 7.48533 13.3828C8.76925 13.3828 9.86528 12.9757 10.836 12.1929C10.9926 12.0989 11.1805 12.0363 11.3997 12.0363Z" fill="#F2F4F8"/>
<path d="M22.669 12.1929V12.005C22.1993 12.3808 21.7295 12.6626 21.1972 12.8505C20.6648 13.0384 20.1012 13.1323 19.4748 13.1323C18.0657 13.1323 16.8444 12.6313 15.8736 11.6292C14.8715 10.6271 14.3705 9.43713 14.3705 8.02795C14.3705 6.61877 14.8715 5.39748 15.8736 4.42672C16.8757 3.42463 18.0657 2.92358 19.4748 2.92358C20.884 2.92358 22.074 3.42463 23.0761 4.42672C24.0782 5.4288 24.5792 6.61877 24.5792 8.02795V12.1929C24.5792 12.4434 24.4853 12.6626 24.2974 12.8505C24.1095 13.0384 23.8903 13.1323 23.6398 13.1323C23.3579 13.1323 23.1387 13.0384 22.9508 12.8505C22.7629 12.6626 22.669 12.4434 22.669 12.1929ZM19.4748 4.83381C19.0364 4.83381 18.598 4.92776 18.2222 5.08434C17.8465 5.24091 17.502 5.49143 17.2202 5.77326C16.9383 6.0551 16.7191 6.39957 16.5312 6.77535C16.3747 7.15113 16.2807 7.58954 16.2807 8.02795C16.2807 8.46637 16.3747 8.87346 16.5312 9.28056C16.6878 9.65634 16.9383 10.0008 17.2202 10.2826C17.502 10.5645 17.8465 10.815 18.2222 10.9716C18.598 11.1281 19.0364 11.2221 19.4748 11.2221C19.9133 11.2221 20.3204 11.1281 20.7275 10.9716C21.1346 10.815 21.4477 10.5645 21.7295 10.2826C22.0114 10.0008 22.2619 9.65634 22.4185 9.28056C22.575 8.90478 22.669 8.49768 22.669 8.05927C22.669 7.62086 22.575 7.21376 22.4185 6.83797C22.2619 6.46219 22.0114 6.11773 21.7295 5.8359C21.4477 5.55406 21.1032 5.30353 20.7275 5.14696C20.3517 4.89644 19.9133 4.83381 19.4748 4.83381Z" fill="#F2F4F8"/>
<path d="M26.5792 14.3693V1.68663C26.5792 1.4048 26.6732 1.18559 26.8611 0.9977C27.049 0.80981 27.2682 0.715866 27.55 0.715866C27.8005 0.715866 28.0197 0.80981 28.2076 0.9977C28.3955 1.18559 28.4894 1.4048 28.4894 1.68663V8.79517L33.9383 5.25655C34.0949 5.16261 34.2514 5.09998 34.4393 5.09998C34.5646 5.09998 34.6898 5.1313 34.8151 5.16261C34.9404 5.22524 35.0343 5.28788 35.1283 5.38182C35.2222 5.47577 35.2848 5.56971 35.3475 5.69497C35.4101 5.82023 35.4101 5.94549 35.4101 6.07075C35.4101 6.41522 35.2848 6.66573 35.0343 6.82231L31.2139 9.29621L35.1283 13.7116C35.3161 13.8995 35.3788 14.1187 35.3788 14.3693C35.3788 14.4945 35.3475 14.6198 35.3161 14.745C35.2535 14.8703 35.1909 14.9642 35.0969 15.0582C35.003 15.1521 34.909 15.2148 34.7838 15.2774C34.6585 15.34 34.5333 15.34 34.408 15.34C34.1575 15.34 33.9383 15.2461 33.7817 15.0895L29.6168 10.3296L28.4894 11.0499V14.3379C28.4894 14.5885 28.3955 14.839 28.2076 15.0269C28.0197 15.2148 27.8005 15.3087 27.55 15.3087C27.2682 15.3087 27.049 15.2148 26.8611 15.0269C26.6732 14.839 26.5792 14.6198 26.5792 14.3693Z" fill="#F2F4F8"/>
<path d="M45.1762 10.22C45.4581 10.22 45.6773 10.314 45.8652 10.5018C46.0531 10.6897 46.147 10.9089 46.147 11.1908C46.147 11.4726 46.0531 11.6918 45.8652 11.8797C44.9257 12.6939 43.7984 13.1323 42.5145 13.1323C41.1053 13.1323 39.884 12.6313 38.9132 11.6292C37.9111 10.6271 37.4101 9.43713 37.4101 8.02795C37.4101 6.61877 37.9111 5.39748 38.9132 4.42672C39.9153 3.42463 41.1053 2.92358 42.5145 2.92358C43.9236 2.92358 45.1136 3.42463 46.1157 4.42672C46.6167 4.92776 46.9925 5.46011 47.243 6.08641C47.4936 6.6814 47.6188 7.33901 47.6188 8.05926C47.6188 8.3411 47.5249 8.56031 47.337 8.7482C47.1491 8.93609 46.9299 9.03003 46.6481 9.03003H39.4143C39.5082 9.3745 39.6648 9.65633 39.884 9.93817C40.1032 10.22 40.3224 10.4392 40.6042 10.6584C40.8861 10.8463 41.1679 11.0029 41.5124 11.1281C41.8255 11.2221 42.17 11.2847 42.5145 11.2847C42.9216 11.2847 43.2973 11.2221 43.6105 11.0968C43.9236 10.9716 44.2681 10.7837 44.5499 10.5645C44.7378 10.314 44.957 10.2513 45.1762 10.22ZM45.6147 7.05718C45.5207 6.71272 45.3641 6.43088 45.1449 6.14905C44.9257 5.86721 44.7065 5.648 44.4247 5.42879C44.1428 5.2409 43.861 5.08433 43.5165 4.95907C43.2034 4.86512 42.8589 4.80249 42.5145 4.80249C42.17 4.80249 41.8255 4.86512 41.5124 4.95907C41.1992 5.05301 40.8861 5.20959 40.6042 5.42879C40.3224 5.61668 40.1032 5.86721 39.884 6.14905C39.6961 6.43088 39.5395 6.74403 39.4456 7.05718H45.6147Z" fill="#F2F4F8"/>
<path d="M53.3767 0.731522C53.909 0.731522 54.3787 0.825465 54.8485 1.01336C55.3182 1.20125 55.694 1.48308 56.0384 1.82755C56.3829 2.17201 56.6647 2.57911 56.8526 3.01753C57.0405 3.48725 57.1345 3.95697 57.1345 4.48933C57.1345 5.42878 56.8526 6.21167 56.289 6.9006C56.6647 7.11981 56.9779 7.37032 57.2597 7.65216C57.5416 7.934 57.7608 8.24715 57.98 8.59161C58.1992 8.93608 58.3244 9.28055 58.4184 9.65633C58.5123 10.0321 58.575 10.4079 58.575 10.815C58.575 11.4413 58.4497 12.005 58.2305 12.5686C57.98 13.101 57.6668 13.602 57.2597 14.0091C56.8526 14.4162 56.3829 14.7294 55.8505 14.9799C55.3182 15.2304 54.7232 15.3244 54.0969 15.3244H50.5896C50.4643 15.3244 50.3391 15.2931 50.2138 15.2617C50.0886 15.1991 49.9946 15.1365 49.9007 15.0425C49.8067 14.9486 49.7441 14.8546 49.6815 14.7294C49.6188 14.6041 49.6188 14.4789 49.6188 14.3536V1.70229C49.6188 1.57703 49.6501 1.45177 49.6815 1.32651C49.7441 1.20125 49.8067 1.1073 49.9007 1.01336C49.9946 0.91941 50.0886 0.856781 50.2138 0.794151C50.3391 0.731521 50.4643 0.731522 50.5896 0.731522H53.3767ZM51.4977 2.67306V6.36824H53.3453C53.5959 6.36824 53.8464 6.30561 54.0656 6.21166C54.2848 6.11772 54.4727 5.99246 54.6606 5.80457C54.8171 5.64799 54.9737 5.42879 55.0677 5.20958C55.1616 4.99038 55.2242 4.73985 55.2242 4.48933C55.2242 4.23881 55.1616 4.01961 55.0677 3.76909C54.9737 3.51857 54.8485 3.36199 54.6606 3.1741C54.504 3.01753 54.2848 2.86094 54.0656 2.767C53.8464 2.67305 53.5959 2.61042 53.3453 2.61042H51.4977V2.67306ZM51.4977 8.30978V13.4141H54.0656C54.41 13.4141 54.7545 13.3515 55.0677 13.2263C55.3808 13.101 55.6627 12.9131 55.8819 12.6939C56.1011 12.4747 56.289 12.1929 56.4142 11.8797C56.5395 11.5666 56.6021 11.2534 56.6021 10.8776C56.6021 10.5332 56.5395 10.1887 56.4142 9.90685C56.289 9.5937 56.1011 9.31186 55.8819 9.09266C55.6627 8.87345 55.3808 8.68556 55.0677 8.5603C54.7545 8.43504 54.4414 8.37241 54.0969 8.37241H51.4977V8.30978Z" fill="#F2F4F8"/>
<path d="M70.7837 8.02795C70.7837 9.43713 70.2826 10.6584 69.2806 11.6292C68.2785 12.6313 67.0572 13.1323 65.6793 13.1323C64.2701 13.1323 63.0488 12.6313 62.0781 11.6292C61.076 10.6271 60.575 9.43713 60.575 8.02795C60.575 6.61877 61.076 5.39748 62.0781 4.42672C63.0802 3.42463 64.2701 2.92358 65.6793 2.92358C67.0885 2.92358 68.2785 3.42463 69.2806 4.42672C69.7816 4.92776 70.1574 5.49143 70.4079 6.08641C70.6584 6.6814 70.7837 7.30771 70.7837 8.02795ZM65.6793 4.83381C65.2409 4.83381 64.8025 4.92776 64.4267 5.08434C64.0509 5.24091 63.7065 5.49143 63.4246 5.77326C63.1428 6.0551 62.9236 6.39957 62.7357 6.77535C62.5791 7.15113 62.4852 7.58954 62.4852 8.02795C62.4852 8.46637 62.5791 8.87346 62.7357 9.28056C62.8923 9.65634 63.1428 10.0008 63.4246 10.2826C63.7065 10.5645 64.0509 10.815 64.4267 10.9716C64.8025 11.1281 65.2409 11.2221 65.6793 11.2221C66.1177 11.2221 66.5248 11.1281 66.9319 10.9716C67.3077 10.815 67.6522 10.5645 67.934 10.2826C68.2158 10.0008 68.4664 9.65634 68.6229 9.28056C68.7795 8.90478 68.8735 8.49768 68.8735 8.05927C68.8735 7.62086 68.7795 7.21376 68.6229 6.83797C68.4664 6.46219 68.2158 6.11773 67.934 5.8359C67.6522 5.55406 67.3077 5.30354 66.9319 5.14696C66.5248 4.89644 66.1177 4.83381 65.6793 4.83381Z" fill="#F2F4F8"/>
<path d="M82.9924 8.02795C82.9924 9.43713 82.4914 10.6584 81.4893 11.6292C80.4872 12.6313 79.2659 13.1323 77.8881 13.1323C76.4789 13.1323 75.2576 12.6313 74.2868 11.6292C73.2847 10.6271 72.7837 9.43713 72.7837 8.02795C72.7837 6.61877 73.2847 5.39748 74.2868 4.42672C75.2889 3.42463 76.4789 2.92358 77.8881 2.92358C79.2972 2.92358 80.4872 3.42463 81.4893 4.42672C81.9903 4.92776 82.3661 5.49143 82.6166 6.08641C82.8672 6.6814 82.9924 7.30771 82.9924 8.02795ZM77.8881 4.83381C77.4496 4.83381 77.0112 4.92776 76.6355 5.08434C76.2597 5.24091 75.9152 5.49143 75.6334 5.77326C75.3515 6.0551 75.1323 6.39957 74.9444 6.77535C74.7879 7.15113 74.6939 7.58954 74.6939 8.02795C74.6939 8.46637 74.7879 8.87346 74.9444 9.28056C75.101 9.65634 75.3515 10.0008 75.6334 10.2826C75.9152 10.5645 76.2597 10.815 76.6355 10.9716C77.0112 11.1281 77.4496 11.2221 77.8881 11.2221C78.3265 11.2221 78.7336 11.1281 79.1407 10.9716C79.5164 10.815 79.8609 10.5645 80.1427 10.2826C80.4246 10.0008 80.6751 9.65634 80.8317 9.28056C80.9883 8.90478 81.0822 8.49768 81.0822 8.05927C81.0822 7.62086 80.9883 7.21376 80.8317 6.83797C80.6751 6.46219 80.4246 6.11773 80.1427 5.8359C79.8609 5.55406 79.5164 5.30353 79.1407 5.14696C78.7336 4.89644 78.3265 4.83381 77.8881 4.83381Z" fill="#F2F4F8"/>
<path d="M86.8713 8.24715C86.3076 8.02794 85.9005 7.80874 85.6813 7.55822C85.2116 7.08849 84.9924 6.52481 84.9924 5.89851C84.9924 5.42878 85.1176 5.02169 85.3682 4.64591C85.6187 4.27013 85.9318 3.95697 86.3389 3.70645C86.746 3.45593 87.1844 3.23673 87.6855 3.11147C88.1865 2.95489 88.6876 2.89226 89.1886 2.89226C90.723 2.89226 92.007 3.51857 93.103 4.73986C93.2282 4.89643 93.2909 5.08432 93.2909 5.30353C93.2909 5.58536 93.1969 5.80457 93.009 5.99246C92.8212 6.18035 92.6019 6.2743 92.3201 6.2743C92.1322 6.2743 91.9443 6.21167 91.8191 6.11772C91.6938 6.02378 91.5372 5.89851 91.412 5.77325C90.7857 5.14695 90.0341 4.8338 89.1573 4.8338C88.2805 4.8338 87.5915 5.11564 87.0592 5.64799C86.9652 5.74194 86.9026 5.8672 86.9026 6.05509C86.9026 6.21166 86.9965 6.33693 87.1531 6.39956L91.412 7.80874C92.007 8.02794 92.4141 8.27847 92.602 8.49767C93.0717 8.9674 93.2909 9.53107 93.2909 10.1574C93.2909 10.6271 93.1656 11.0342 92.9151 11.41C92.6646 11.7858 92.3514 12.0989 91.9443 12.3494C91.5372 12.5999 91.0988 12.8192 90.5978 12.9444C90.0967 13.0697 89.5957 13.1636 89.126 13.1636C87.5915 13.1636 86.2763 12.5686 85.2116 11.3473C85.0863 11.1595 85.0237 10.9716 85.0237 10.7524C85.0237 10.4705 85.1176 10.2513 85.3055 10.0634C85.4934 9.87554 85.7126 9.78158 85.9945 9.78158C86.1823 9.78158 86.3702 9.84422 86.4955 9.96948C86.6208 10.0947 86.7773 10.1887 86.8713 10.3139C87.4976 10.9402 88.2491 11.2534 89.1573 11.2534C90.0341 11.2534 90.723 10.9716 91.2554 10.4392C91.3493 10.3453 91.3807 10.22 91.3807 10.0634C91.3807 9.90685 91.2867 9.78159 91.1301 9.71896L86.8713 8.24715Z" fill="#F2F4F8"/>
<path d="M96.2303 5.11563H96.6688V1.67097C96.6688 1.42045 96.7627 1.20125 96.9506 1.01336C97.1385 0.825465 97.3577 0.731522 97.6395 0.731522C97.89 0.731522 98.1092 0.825465 98.2971 1.01336C98.485 1.20125 98.579 1.42045 98.579 1.67097V5.11563H99.7063C99.9568 5.11563 100.176 5.20959 100.364 5.39748C100.552 5.58537 100.646 5.80457 100.646 6.05509C100.646 6.33692 100.552 6.55613 100.364 6.74402C100.176 6.93191 99.9568 7.02586 99.7063 7.02586H98.579V11.5979C98.579 12.8192 99.174 13.4141 100.395 13.4141C100.646 13.4141 100.865 13.5081 101.053 13.696C101.241 13.8839 101.335 14.1031 101.335 14.3536C101.335 14.6354 101.241 14.8546 101.053 15.0425C100.865 15.2304 100.646 15.3244 100.395 15.3244C97.9214 15.3244 96.6688 14.0718 96.6688 11.5979V6.99454H96.2303C95.9798 6.99454 95.7606 6.9006 95.5727 6.71271C95.3848 6.52482 95.2909 6.30562 95.2909 6.02378C95.2909 5.77326 95.3848 5.55405 95.5727 5.36616C95.7606 5.17827 95.9798 5.11563 96.2303 5.11563Z" fill="#F2F4F8"/>
</g>
<defs>
<clipPath id="clip0">
<rect x="0.157593" y="0.715866" width="101.177" height="14.6242" fill="white"/>
</clipPath>
</defs>
</svg>
