<svg width="45" height="57" viewBox="0 0 45 57" fill="none" xmlns="http://www.w3.org/2000/svg">
<path d="M30.2218 21.6483C31.1049 22.1175 32.0984 22.3107 32.9814 22.7522C34.996 23.7181 36.6518 25.0979 37.7005 27.0573C38.5836 28.6855 38.4732 30.3137 37.6729 31.9419C36.983 33.3493 36.2379 34.7292 35.5755 36.1366C34.3613 38.7031 34.3613 41.3799 34.858 44.112C35.0788 45.3263 35.4375 46.5129 35.5203 47.7272C35.6307 49.6037 35.272 50.1281 33.4506 50.6248C30.7461 51.3699 27.9589 51.8115 25.1716 52.115C22.1912 52.4738 19.1831 52.5566 16.1475 52.4738C14.4365 52.4462 12.7255 52.253 11.0421 51.8391C9.68987 51.4803 8.83437 50.542 8.31003 49.3002C7.53733 47.4512 7.42694 45.5194 7.53733 43.5325C7.7581 44.4708 7.97887 45.4091 8.22724 46.3197C8.50321 47.3684 8.91716 48.3619 9.71746 49.1346C10.3522 49.7417 11.0973 50.0453 11.9528 50.2109C15.7335 50.9284 19.5419 50.68 23.3226 50.2937C25.7787 50.0453 28.2348 49.6313 30.6357 49.0242C31.3808 48.831 32.0984 48.6379 32.8159 48.3895C33.7542 48.0583 34.0577 47.3684 33.7542 46.2646C33.3126 44.7467 33.009 43.2013 32.8711 41.6007C32.6503 39.4482 32.8159 37.3508 33.7542 35.3639C33.7817 35.3087 33.8093 35.2535 33.8093 35.1983C33.8093 35.1707 33.7817 35.1155 33.7542 35.0327C32.9814 35.3639 32.2363 35.695 31.4636 35.9986C28.8144 37.0473 26.0547 37.7648 23.2674 38.3719C21.6668 38.7307 20.0662 39.0894 18.438 39.3378C17.9137 39.4206 17.5825 39.7241 17.4445 40.2209C17.3893 40.4141 17.3617 40.6072 17.3065 40.8004C17.2238 41.1316 17.003 41.3524 16.6718 41.4075C16.3683 41.4627 16.1475 41.2972 15.9819 41.0764C15.8439 40.9108 15.7611 40.7176 15.6231 40.5244C15.4576 40.3037 15.3196 40.0553 15.154 39.8621C14.3813 39.0342 13.719 39.1722 13.3326 40.2485C13.0291 41.0488 12.9739 41.8767 12.8911 42.7046C12.8083 43.4497 12.5323 43.7809 11.9804 43.8912C11.3457 44.0016 10.7385 43.6705 10.4626 43.0633C10.4074 42.953 10.3522 42.815 10.3246 42.677C10.1866 41.6559 9.49669 41.104 8.586 40.828C7.59252 40.4969 6.57144 40.2209 5.57797 39.8897C4.25333 39.4758 3.01148 38.9238 2.10079 37.82C0.665761 36.0538 0.638165 33.8737 2.07319 31.8039C2.59753 31.0312 3.20465 30.3137 3.92217 29.7066C4.08775 29.5686 4.22573 29.4306 4.25332 29.1822C4.36371 26.3674 6.01951 24.6564 8.31003 23.3593C9.91064 22.4486 11.5388 21.5655 13.167 20.6549C13.7466 20.3237 14.2709 19.9097 14.7401 19.4406C15.9267 18.3367 16.2027 17.2329 15.568 15.7427C15.4024 15.3011 15.4852 15.2735 15.8991 15.3011C16.6994 15.3563 17.4445 15.5495 18.162 15.8254C18.3 15.9634 18.3276 16.1566 18.2448 16.3222C17.8585 17.2329 17.8309 18.2539 17.5549 19.1922C17.5273 19.2474 17.4721 19.275 17.4169 19.3026C17.0582 19.275 16.8098 19.413 16.6166 19.7442C16.1475 20.4617 15.3472 20.8204 14.6573 21.2896C13.3326 22.1727 11.8976 22.835 10.573 23.6629C9.19313 24.4908 7.89608 25.4291 7.12338 26.8917C6.9578 27.1953 6.62664 27.554 6.9302 27.9128C7.20617 28.2439 7.59252 27.9956 7.92368 27.8852C9.13793 27.4712 10.3798 27.1677 11.6216 26.8365C12.6703 26.5329 13.7466 26.4226 14.7952 26.3674C17.3065 26.257 19.8454 26.2294 22.3291 26.8089C22.6051 26.8641 22.9087 26.9193 23.1846 27.0573C23.3502 27.1401 23.5434 27.2229 23.4882 27.416C23.433 27.6368 23.2674 27.6644 23.0466 27.6644C22.5775 27.6644 22.1084 27.692 21.6392 27.6644C19.5695 27.5816 17.4997 27.7196 15.43 28.106C14.3813 28.2991 13.3602 28.4923 12.3116 28.6579C11.5388 28.6303 10.8765 29.0166 10.1866 29.2098C8.64119 29.6514 7.09578 30.1757 5.71595 31.0312C4.91565 31.5279 4.19813 32.1351 3.70139 32.963C2.59753 34.7843 3.59101 37.4336 5.63316 38.0407C5.85393 38.0959 6.07471 38.2339 6.35067 38.0407C6.1299 37.682 5.85393 37.3508 5.66076 36.9645C5.55037 36.7437 5.41239 36.4953 5.68835 36.2746C5.93672 36.109 6.1299 36.2746 6.32307 36.4125C7.06818 37.0197 7.92368 37.1853 8.86197 37.0749C9.46909 37.0197 10.0762 36.8265 10.7109 36.7713C10.9869 36.7437 11.0973 36.4677 11.3457 36.4125C12.5599 36.0262 13.719 35.4743 15.0436 35.5846C15.3748 35.6122 15.7335 35.6122 16.0095 35.7502C17.4169 36.4953 18.9072 36.4125 20.425 36.2746C23.5986 35.971 26.6342 35.1983 29.6423 34.122C31.436 33.4873 33.147 32.6594 34.6648 31.5003C35.2996 31.0312 35.8515 30.4793 36.1827 29.7618C36.5966 28.9339 36.5138 28.1611 36.0447 27.3608C35.2996 26.1742 34.1681 25.4567 32.9814 24.7944C31.85 24.132 30.6081 23.6905 29.4767 23.0558C29.2835 22.4762 29.725 21.7587 30.2218 21.6483Z" fill="#F2F4F8"/>
<path d="M30.2219 21.6483C29.9735 22.0899 29.6976 22.5314 29.4492 22.973C29.4768 23.0282 29.5044 23.0834 29.4768 23.1386C28.2074 25.0151 26.386 25.8706 24.2058 25.8982C21.7497 25.9258 19.7628 24.8495 18.3554 22.8074C18.107 22.421 17.8862 22.0071 17.693 21.5655C17.4171 21.0412 17.3067 20.4893 17.2239 19.9097C17.1963 19.6338 17.2515 19.3854 17.4447 19.1922C17.4171 18.0056 17.6654 16.8741 18.1622 15.7978C19.1281 14.0869 20.5079 12.9278 22.4121 12.4311C23.1572 12.2379 26.1652 12.6242 26.248 12.569C29.9735 13.8385 31.7673 17.9504 30.2219 21.6483Z" fill="#901A1C"/>
<path d="M40.5706 45.3263C42.0332 45.9334 43.4406 46.5681 44.4341 47.8652C45.2068 48.8862 45.1792 49.9901 44.4065 51.0112C43.3854 52.3082 41.978 52.9981 40.4878 53.6053C37.0106 55.0127 33.3402 55.6198 29.6147 56.0338C26.3031 56.3925 22.9915 56.4753 19.6523 56.3373C14.9333 56.1441 10.2694 55.5922 5.77117 54.102C4.28095 53.6053 2.84592 52.9705 1.60407 52.0323C1.52128 51.9771 1.4385 51.9219 1.3833 51.8391C-0.465674 50.2661 -0.465675 48.5275 1.4109 46.9545C2.2388 46.2645 3.17708 45.7678 4.19816 45.4091C3.81181 45.8506 3.31507 46.1266 2.92871 46.5405C1.85244 47.7272 1.88004 48.969 3.0391 50.1005C4.25335 51.2871 5.79877 51.9219 7.37178 52.4738C10.711 53.6053 14.1606 54.102 17.6653 54.378C22.136 54.7367 26.5791 54.5987 30.9945 53.9916C34.2785 53.5225 37.5073 52.8601 40.4602 51.2319C41.1777 50.8456 41.84 50.3489 42.3643 49.6865C43.1094 48.7207 43.0542 47.5892 42.2539 46.6785C41.7296 46.1818 41.1501 45.7402 40.5706 45.3263Z" fill="#F2F4F8"/>
<path d="M25.42 14.8596C24.7025 14.6388 24.5921 14.3904 25.0061 13.7833C25.6132 12.8726 25.558 11.8515 25.5856 10.858C25.6132 9.86456 25.558 8.87108 25.3372 7.9052C25.2821 7.62923 25.1993 7.32567 25.0889 7.0773C24.9785 6.88412 24.0126 4.06926 23.1019 2.71703C22.688 2.0823 22.2188 1.47518 21.6945 0.923245C21.6117 0.840455 21.5289 0.757665 21.4737 0.674875C21.3357 0.481698 21.2529 0.260926 21.4461 0.0953457C21.6393 -0.0978308 21.8601 0.0401522 22.0256 0.178135C22.5776 0.730069 23.0743 1.3372 23.5159 1.97192C23.709 2.24788 23.8746 2.52385 24.0402 2.82741C24.4266 3.68291 24.8681 4.51081 25.1993 5.36631C25.9168 7.27048 26.1651 9.25743 26.2203 11.272C26.2479 12.3207 25.972 13.3693 25.8064 14.418C25.7236 14.5836 25.5304 14.694 25.42 14.8596Z" fill="#748843"/>
<path d="M24.1507 47.948C24.1507 48.0859 24.1507 48.1411 24.1507 48.2239C24.1507 48.4447 24.1231 48.7207 23.8747 48.7483C23.5711 48.7759 23.5987 48.4723 23.5711 48.2791C23.3779 46.5129 23.1848 44.7191 22.964 42.9254C22.8812 42.0975 22.7708 41.2696 22.6604 40.4417C22.6328 40.2209 22.5776 39.9173 22.8812 39.8897C23.1572 39.8621 23.1848 40.1381 23.2124 40.3589C23.4055 41.7939 23.5711 43.2565 23.7367 44.7191C23.9023 45.7954 24.0127 46.8993 24.1507 47.948Z" fill="#9FA5AD"/>
<path d="M26.3307 39.5586C26.3583 39.4206 26.3032 39.1722 26.5515 39.1722C26.8275 39.1722 26.8827 39.4206 26.9103 39.6138C27.0483 40.5245 27.1586 41.4352 27.2966 42.3459C27.5174 43.9741 27.7106 45.6023 27.9314 47.2305C27.9314 47.3408 27.9865 47.4236 27.9865 47.5064C27.9865 47.7272 27.959 47.9756 27.7106 48.0032C27.4346 48.0308 27.4346 47.7548 27.4346 47.5892C27.2966 46.6233 27.1862 45.6575 27.0483 44.6916C26.8275 43.1462 26.6343 41.6007 26.4135 40.0553C26.3583 39.8898 26.3583 39.7242 26.3307 39.5586Z" fill="#9FA5AD"/>
<path d="M30.0011 41.4076C29.9735 40.3865 30.0562 39.3654 30.415 38.3995C30.4702 38.2615 30.4978 37.9856 30.7186 38.0408C30.9117 38.096 30.9393 38.3167 30.8841 38.4823C30.1942 40.966 30.7186 43.3945 30.9945 45.8506C31.0221 45.9886 31.0497 46.1266 31.0221 46.2646C30.9945 46.4302 31.1049 46.7061 30.829 46.7337C30.553 46.7613 30.4702 46.5405 30.4426 46.3198C30.3322 45.3815 30.2218 44.4708 30.0838 43.5325C30.0287 42.8702 29.9735 42.1251 30.0011 41.4076Z" fill="#9FA5AD"/>
<path d="M20.3423 48.7482C20.3147 48.9138 20.3423 49.1622 20.0939 49.1622C19.8179 49.1898 19.8179 48.9414 19.7903 48.7482C19.5696 46.9821 19.3488 45.2159 19.128 43.4773C19.0452 42.7598 18.9348 42.0423 18.8244 41.3247C18.7969 41.104 18.7141 40.8004 19.0176 40.7452C19.3212 40.69 19.3488 41.0212 19.3764 41.242C19.7351 43.5049 20.0663 45.7678 20.2871 48.0307C20.2871 48.2515 20.3147 48.4723 20.3423 48.7482Z" fill="#9FA5AD"/>
<path d="M35.2168 51.6183C35.8239 51.3423 36.3483 51.1492 36.8174 50.8732C38.556 49.8521 38.832 48.4447 37.6729 46.8165C37.5901 46.7061 37.4797 46.6233 37.4797 46.4577C39.1355 46.9821 39.6323 49.0518 38.418 50.2385C37.7557 50.9008 36.3483 51.5079 35.2168 51.6183Z" fill="#9FA5AD"/>
<path d="M15.9268 44.7467C16.3407 46.2093 16.5063 47.7272 16.6719 49.2174C16.6995 49.383 16.6719 49.6037 16.4511 49.6313C16.12 49.6589 16.12 49.3554 16.0924 49.1346C15.8716 47.7824 15.6784 46.4301 15.4852 45.0779C15.5404 44.8847 15.568 44.6363 15.9268 44.7467Z" fill="#9FA5AD"/>
<path d="M12.8911 48.8034C12.8911 48.9414 12.9187 49.0794 12.7807 49.1346C12.6151 49.1898 12.5323 49.0794 12.4219 48.9966C12.3116 48.8862 12.3116 48.7758 12.2564 48.6379C12.008 47.5892 11.7596 46.5681 11.5113 45.5194C11.4561 45.2987 11.3181 45.0227 11.6492 44.9399C11.8976 44.8847 12.008 45.1331 12.0632 45.3263C12.3943 46.4577 12.7255 47.6168 12.8911 48.8034Z" fill="#9FA5AD"/>
<path d="M15.9268 44.7467C15.7888 44.8571 15.6232 44.9675 15.4853 45.0779C15.2093 44.0568 14.9333 43.0633 14.685 42.0423C14.6298 41.8491 14.5746 41.5731 14.8505 41.4903C15.0713 41.4351 15.1817 41.6835 15.2369 41.8491C15.5405 42.815 15.7888 43.7809 15.9268 44.7467Z" fill="#9FA5AD"/>
<path d="M17.4445 19.1922C17.4445 19.9925 17.6929 20.7652 17.9413 21.5379C17.9137 21.9519 17.5549 21.8415 17.3617 21.9243C17.4169 21.9243 17.5549 21.8691 17.6653 21.8967C18.0793 21.9243 18.2448 22.2279 18.0517 22.5866C17.4169 23.7733 17.6101 24.4356 18.7968 25.0427C19.7075 25.5119 20.6733 25.8154 21.6944 25.8982C23.7642 26.0638 25.8339 26.0914 27.6829 24.9323C28.428 24.4632 28.9799 23.8561 29.3939 23.0833C29.3939 23.0557 29.4215 23.0282 29.4215 23.0006C29.9458 22.973 30.3598 23.2489 30.8013 23.4421C32.4295 24.1872 34.0301 24.9323 35.3272 26.1742C35.6307 26.4501 35.8791 26.7813 36.0999 27.1125C36.9002 28.3819 36.7622 29.6238 35.7411 30.7552C34.4993 32.135 32.8987 33.0181 31.2429 33.7357C28.1796 35.0879 24.9508 35.9434 21.6392 36.4401C20.2318 36.6609 18.7968 36.8265 17.3341 36.6057C17.0306 36.5505 16.7546 36.5229 16.5062 36.3573C15.292 35.6674 14.0225 35.7778 12.7807 36.2194C12.3116 36.3849 11.8148 36.5505 11.3457 36.7161C10.2694 36.8817 9.22073 36.9645 8.14446 36.5229C6.40587 35.833 6.1299 34.5912 6.76462 33.1009C7.73051 30.8656 9.4415 29.403 11.7596 28.6579C11.87 28.6303 11.9528 28.5475 12.0632 28.4923C13.5258 27.968 15.0712 27.8852 16.6166 27.6644C18.576 27.3884 20.5629 27.3884 22.5223 27.416C22.7431 27.416 22.9639 27.416 23.1846 27.3608C22.1636 27.0021 21.1149 26.8365 20.0386 26.7261C17.3893 26.4501 14.7677 26.5329 12.146 26.9469C11.9252 26.9745 11.732 27.1677 11.4837 27.0849C11.0973 26.9745 10.6833 27.0021 10.297 26.9745C9.85545 26.9469 9.4691 26.7813 9.27592 26.3949C9.08274 25.981 9.27592 25.5946 9.55189 25.2635C9.85545 24.9047 10.1866 24.5736 10.573 24.2976C11.8424 23.3317 13.2498 22.5866 14.6021 21.7035C15.4576 21.1516 16.1751 20.4617 16.6994 19.5786C16.8374 19.3578 16.9478 18.999 17.3617 19.1922C17.3617 19.1922 17.4169 19.1922 17.4445 19.1922Z" fill="#C24DFE"/>
<path d="M12.0632 28.4647C12.0908 28.6303 12.0081 28.7131 11.8701 28.7683C10.3799 29.2926 9.1656 30.2309 8.14453 31.39C7.39942 32.2179 6.84748 33.1837 6.79229 34.3704C6.76469 35.1707 7.26143 35.8054 8.00654 36.109C8.80685 36.4125 9.57955 36.6333 10.4626 36.5781C10.7662 36.5505 11.0698 36.6333 11.4009 36.6885C10.3247 37.1577 9.1932 37.4612 8.00654 37.3784C7.20624 37.3232 6.43353 37.0473 5.854 36.3298C5.9092 36.8817 6.18516 37.3232 6.7095 37.7924C6.87508 37.9304 7.15105 38.0132 7.06826 38.2615C6.95787 38.5375 6.6543 38.4271 6.43353 38.4271C4.39138 38.3995 2.76318 36.3298 3.01155 34.2048C3.17713 32.6042 4.1982 31.6383 5.41246 30.8656C7.39942 29.5686 9.66234 28.9063 11.9529 28.4371C11.9529 28.4371 12.0081 28.4371 12.0632 28.4647Z" fill="#702F96"/>
<path d="M17.3343 19.1922C17.2239 19.275 17.0307 19.3578 16.9755 19.4682C16.3408 21.0412 14.9609 21.8139 13.6087 22.6418C12.6152 23.249 11.6217 23.8561 10.6835 24.546C10.4075 24.7668 10.1315 24.9875 9.91075 25.2635C9.66238 25.5395 9.35882 25.8154 9.5244 26.2294C9.68998 26.6157 10.1039 26.6709 10.4627 26.6709C10.849 26.6709 11.2078 26.7261 11.4562 27.0573C10.1591 27.4436 8.83448 27.8576 7.53744 28.2439C7.20628 28.3543 6.79233 28.4923 6.54396 28.1612C6.268 27.83 6.43357 27.4161 6.59915 27.0573C7.42705 25.4015 8.80689 24.2976 10.3523 23.3593C11.9805 22.3935 13.6915 21.5656 15.2369 20.4893C15.844 20.0753 16.396 19.5786 16.9203 19.0267C17.1687 18.8335 17.3343 18.7507 17.3343 19.1922Z" fill="#702F96"/>
<path d="M29.394 23.0557C29.118 24.2976 28.2625 25.0703 27.1586 25.5118C24.2886 26.6709 21.3909 26.5605 18.5761 25.2635C18.0241 25.0151 17.5274 24.6287 17.3618 23.994C17.2514 23.4973 17.279 23.0281 17.6378 22.6142C17.7206 22.5038 17.9413 22.3934 17.8586 22.2278C17.7758 22.0347 17.555 22.145 17.3618 22.145C17.0583 22.1174 16.7547 22.3106 16.3959 22.1726C16.8651 21.8139 17.417 21.7311 17.9138 21.5379C18.6589 22.9729 19.6523 24.1596 21.1426 24.9047C23.7366 26.2018 27.0206 25.5946 28.98 23.4421C29.118 23.3041 29.256 23.1937 29.394 23.0557Z" fill="#361749"/>
<path d="M17.8861 19.1646C18.7692 22.283 20.9217 24.132 23.9573 25.0703C20.5905 24.8219 17.8585 22.4486 17.8861 19.1646Z" fill="#F3F3F3"/>
<path d="M23.6538 28.1059C22.412 28.2715 21.1701 28.4095 19.9559 28.5751C16.5063 29.127 13.2499 30.2033 10.435 32.3558C10.1314 32.5766 9.82789 32.7974 9.49673 32.9629C9.33115 33.0733 9.08278 33.2113 8.8896 33.0181C8.69642 32.825 8.862 32.6042 8.94479 32.4386C9.46913 31.5279 10.2142 30.8104 11.0421 30.2033C13.1119 28.7407 15.4852 28.1335 17.9413 27.8852C19.8731 27.692 21.7496 27.7472 23.6538 28.1059Z" fill="#F4F4F4"/>
<path d="M29.6975 32.9906C30.2494 32.6318 30.8014 32.3007 31.3809 31.9419C32.0432 31.528 32.5952 30.9484 33.0643 30.3413C33.9474 29.1546 33.8094 27.7472 32.7331 26.5606C32.264 26.0362 31.7397 25.5671 31.1325 25.1807C30.8842 25.0151 30.6634 24.8772 30.4702 24.6564C32.0708 25.2083 33.6162 25.8706 34.7201 27.1677C35.9068 28.5475 35.4652 29.541 34.3062 30.6173C33.0091 31.8039 31.3533 32.4386 29.6975 32.9906Z" fill="#F3F3F3"/>
</svg>
