<svg width="24" height="24" viewBox="0 0 24 24" fill="none" xmlns="http://www.w3.org/2000/svg">
<path fill-rule="evenodd" clip-rule="evenodd" d="M7.83201 3.60165C7.56791 3.2869 7.05797 3.40737 6.96263 3.80704L6.12268 7.32845C6.04501 7.6541 6.30308 7.9626 6.63733 7.94366L10.2598 7.73838C10.6708 7.7151 10.8791 7.23307 10.6146 6.91779L9.77276 5.91454C10.48 5.67286 11.2299 5.54663 12 5.54663C15.8002 5.54663 18.881 8.62734 18.881 12.4276C18.881 16.2278 15.8002 19.3085 12 19.3085C8.19976 19.3085 5.11905 16.2278 5.11905 12.4276C5.11905 11.7896 5.20544 11.1648 5.37389 10.5642L3.81501 10.127C3.60977 10.8587 3.5 11.6303 3.5 12.4276C3.5 17.122 7.30558 20.9276 12 20.9276C16.6944 20.9276 20.5 17.122 20.5 12.4276C20.5 7.73317 16.6944 3.92759 12 3.92759C10.8192 3.92759 9.6946 4.16837 8.67267 4.60351L7.83201 3.60165Z" fill="#D5D9E0"/>
</svg>
