<svg width="24" height="24" viewBox="0 0 24 24" fill="none" xmlns="http://www.w3.org/2000/svg">
<g id=" Shopping / Sale#2">
<path id="Combined Shape" opacity="0.3" fill-rule="evenodd" clip-rule="evenodd" d="M12.0004 20.0218L8.47383 21.7286L6.86942 18.1543L3.07085 17.195L4.13931 13.4256L1.8461 10.249L5.08747 8.04836L5.37264 4.1409L9.27025 4.53859L12.0004 1.72861L14.7305 4.53859L18.6281 4.1409L18.9133 8.04836L22.1546 10.249L19.8614 13.4256L20.9299 17.195L17.1313 18.1543L15.5269 21.7286L12.0004 20.0218Z" fill="#FB8C00"/>
<path id="Stroke 1" fill-rule="evenodd" clip-rule="evenodd" d="M14.0886 8.60257L8.36035 14.7015L9.70824 16.0493L15.4365 9.95046L14.0886 8.60257Z" fill="#FB8C00"/>
<path id="Fill 2" opacity="0.3" fill-rule="evenodd" clip-rule="evenodd" d="M10.854 9.17539C10.854 10.1253 10.0851 10.8939 9.13548 10.8939C8.18756 10.8939 7.41699 10.1253 7.41699 9.17539C7.41699 8.22552 8.18756 7.45691 9.13548 7.45691C10.0851 7.45691 10.854 8.22552 10.854 9.17539Z" fill="#FB8C00"/>
<path id="Fill 4" opacity="0.3" fill-rule="evenodd" clip-rule="evenodd" d="M14.864 16.6222C13.9161 16.6222 13.1455 15.8535 13.1455 14.9037C13.1455 13.9521 13.9161 13.1852 14.864 13.1852C15.8137 13.1852 16.5825 13.9521 16.5825 14.9037C16.5825 15.8535 15.8137 16.6222 14.864 16.6222Z" fill="#FB8C00"/>
</g>
</svg>
